<svg width="35" height="29" viewBox="0 0 35 29" fill="none" xmlns="http://www.w3.org/2000/svg">
<path d="M19 12C19 12.3956 18.8827 12.7822 18.6629 13.1111C18.4432 13.44 18.1308 13.6964 17.7654 13.8478C17.3999 13.9991 16.9978 14.0387 16.6098 13.9616C16.2219 13.8844 15.8655 13.6939 15.5858 13.4142C15.3061 13.1345 15.1156 12.7781 15.0384 12.3902C14.9613 12.0022 15.0009 11.6001 15.1522 11.2346C15.3036 10.8692 15.56 10.5568 15.8889 10.3371C16.2178 10.1173 16.6044 10 17 10" stroke="white" stroke-width="1.5" stroke-linecap="round"/>
<path d="M9 11C10.1046 11 11 10.1046 11 9C11 7.89543 10.1046 7 9 7C7.89543 7 7 7.89543 7 9C7 10.1046 7.89543 11 9 11Z" stroke="white" stroke-width="1.5"/>
<path d="M3 5C3.39556 5 3.78224 4.8827 4.11114 4.66294C4.44004 4.44318 4.69638 4.13082 4.84776 3.76537C4.99913 3.39992 5.03874 2.99778 4.96157 2.60982C4.8844 2.22186 4.69392 1.86549 4.41421 1.58579C4.13451 1.30608 3.77814 1.1156 3.39018 1.03843C3.00222 0.96126 2.60009 1.00087 2.23463 1.15224C1.86918 1.30362 1.55682 1.55996 1.33706 1.88886C1.1173 2.21776 1 2.60444 1 3" stroke="white" stroke-width="1.5" stroke-linecap="round"/>
<path d="M6 15.5C6 15.7967 5.91203 16.0867 5.7472 16.3334C5.58238 16.58 5.34812 16.7723 5.07403 16.8858C4.79994 16.9994 4.49834 17.0291 4.20737 16.9712C3.91639 16.9133 3.64912 16.7704 3.43934 16.5607C3.22956 16.3509 3.0867 16.0836 3.02882 15.7926C2.97094 15.5017 3.00065 15.2001 3.11418 14.926C3.22771 14.6519 3.41997 14.4176 3.66664 14.2528C3.91332 14.088 4.20333 14 4.5 14" stroke="white" stroke-width="1.5" stroke-linecap="round"/>
<path d="M13.5 4C13.7967 4 14.0867 3.91203 14.3334 3.7472C14.58 3.58238 14.7723 3.34811 14.8858 3.07403C14.9994 2.79994 15.0291 2.49834 14.9712 2.20737C14.9133 1.91639 14.7704 1.64912 14.5607 1.43934C14.3509 1.22956 14.0836 1.0867 13.7926 1.02882C13.5017 0.970945 13.2001 1.00065 12.926 1.11418C12.6519 1.22771 12.4176 1.41997 12.2528 1.66665C12.088 1.91332 12 2.20333 12 2.5" stroke="white" stroke-width="1.5" stroke-linecap="round"/>
</svg>
